<svg xmlns="http://www.w3.org/2000/svg" width="50" height="52" fill="none">
    <path fill="#FAFF00" d="M35.215 28.193h-20.52a.575.575 0 0 1-.58-.581c0-.326.255-.581.58-.581h20.51c.325 0 .58.255.58.58a.572.572 0 0 1-.57.582Zm0-4.069h-20.52a.575.575 0 0 1-.58-.581c0-.326.255-.582.58-.582h20.51c.325 0 .58.256.58.582a.572.572 0 0 1-.57.581Z"/>
    <path fill="#FAFF00" d="M13.544 33.483h-1.29a1.737 1.737 0 0 1-1.733-1.732V19.415c0-.953.78-1.733 1.733-1.733h1.29c.953 0 1.733.78 1.733 1.733V31.75a1.73 1.73 0 0 1-1.733 1.732v.001Zm-1.29-14.638a.57.57 0 0 0-.57.57v12.347c0 .314.256.57.57.57h1.29a.568.568 0 0 0 .57-.57V19.415a.57.57 0 0 0-.57-.57h-1.29Z"/>
    <path fill="#FAFF00" d="M9.951 31.216h-1.29a1.737 1.737 0 0 1-1.732-1.732v-7.801c0-.953.778-1.733 1.732-1.733h1.29c.954 0 1.733.78 1.733 1.733a.578.578 0 0 1-.805.538.58.58 0 0 1-.357-.538.57.57 0 0 0-.57-.57h-1.29a.57.57 0 0 0-.57.57v7.801c0 .314.255.57.57.57h1.29a.57.57 0 0 0 .57-.57c0-.325.255-.581.58-.581.326 0 .582.256.582.581 0 .954-.779 1.732-1.733 1.732Z"/>
    <path fill="#FAFF00" d="M6.36 29.647H5.07a1.737 1.737 0 0 1-1.733-1.733v-4.662c0-.953.779-1.732 1.732-1.732h1.29c.954 0 1.733.779 1.733 1.732a.577.577 0 0 1-.581.582.577.577 0 0 1-.582-.582.57.57 0 0 0-.57-.57h-1.29a.57.57 0 0 0-.57.57v4.662c0 .314.256.57.57.57h1.29a.57.57 0 0 0 .57-.57c0-.325.256-.58.582-.58.325 0 .58.255.58.58 0 .954-.78 1.733-1.731 1.733Z"/>
    <path fill="#FAFF00" d="M3.918 28.193H.581A.575.575 0 0 1 0 27.612v-4.07c0-.325.256-.58.581-.58h3.337c.325 0 .581.255.581.58a.576.576 0 0 1-.581.582H1.163v2.907h2.755c.325 0 .581.255.581.58a.576.576 0 0 1-.581.582Zm31.297-17.672h-20.52a.575.575 0 0 1-.58-.581c0-.326.255-.582.58-.582h20.51c.325 0 .58.256.58.582a.572.572 0 0 1-.57.581Zm0-4.07h-20.52a.576.576 0 0 1-.58-.58c0-.326.255-.582.58-.582h20.51c.325 0 .58.256.58.582a.573.573 0 0 1-.57.58Z"/>
    <path fill="#FAFF00" d="M13.15 15.812h-1.733a2.128 2.128 0 0 1-2.128-2.128V2.128C9.29.953 10.242 0 11.417 0h1.732c1.174 0 2.127.953 2.127 2.128v11.544a2.132 2.132 0 0 1-2.127 2.14Zm-1.733-14.65a.964.964 0 0 0-.965.966v11.544c0 .535.43.965.965.965h1.732c.535 0 .965-.43.965-.965V2.128a.964.964 0 0 0-.965-.965l-1.732-.001Z"/>
    <path fill="#FAFF00" d="M8.324 12.115H6.59a2.128 2.128 0 0 1-2.127-2.128V5.825c0-1.174.953-2.127 2.127-2.127h1.733c1.174 0 2.127.953 2.127 2.127a.576.576 0 0 1-.581.582.576.576 0 0 1-.581-.582.963.963 0 0 0-.965-.965H6.59a.963.963 0 0 0-.964.965v4.15c0 .535.43.965.964.965h1.733c.534 0 .965-.43.965-.965 0-.325.255-.581.58-.581.326 0 .582.256.582.581a2.13 2.13 0 0 1-2.126 2.14Zm30.17 3.697h-1.732a2.128 2.128 0 0 1-2.127-2.128V2.128C34.635.953 35.588 0 36.762 0h1.733c1.174 0 2.127.953 2.127 2.128v11.544a2.129 2.129 0 0 1-2.127 2.14Zm-1.732-14.65a.963.963 0 0 0-.965.966v11.544c0 .535.43.965.965.965h1.733c.534 0 .965-.43.965-.965V2.128a.962.962 0 0 0-.965-.965l-1.733-.001Z"/>
    <path fill="#FAFF00" d="M43.33 12.115h-1.732a2.128 2.128 0 0 1-2.127-2.128c0-.325.256-.581.581-.581.326 0 .581.256.581.581 0 .535.43.965.965.965h1.733c.534 0 .964-.43.964-.965V5.825a.963.963 0 0 0-.964-.965h-1.733a.963.963 0 0 0-.965.965.575.575 0 0 1-.58.582.576.576 0 0 1-.582-.582c0-1.174.953-2.127 2.127-2.127h1.733c1.174 0 2.127.953 2.127 2.127v4.15c0 1.186-.954 2.14-2.128 2.14Zm-8.115 33.762h-20.52a.576.576 0 0 1-.58-.582c0-.325.255-.581.58-.581h20.51c.325 0 .58.256.58.581a.572.572 0 0 1-.57.582Zm0-4.07h-20.52a.575.575 0 0 1-.58-.581c0-.326.255-.582.58-.582h20.51c.325 0 .58.256.58.582a.572.572 0 0 1-.57.581Z"/>
    <path fill="#FAFF00" d="M13.15 51.166h-1.733a2.128 2.128 0 0 1-2.128-2.127V37.494c0-1.174.953-2.127 2.128-2.127h1.732c1.174 0 2.127.953 2.127 2.127V49.04a2.128 2.128 0 0 1-2.127 2.126Zm-1.733-14.649a.962.962 0 0 0-.965.965v11.545c0 .534.43.965.965.965h1.732c.535 0 .965-.43.965-.965V37.482a.964.964 0 0 0-.965-.965h-1.732Z"/>
    <path fill="#FAFF00" d="M8.324 47.47H6.59a2.128 2.128 0 0 1-2.127-2.128v-4.15c0-1.175.953-2.128 2.127-2.128h1.733c1.174 0 2.127.953 2.127 2.127a.576.576 0 0 1-.581.582.574.574 0 0 1-.581-.582.963.963 0 0 0-.965-.965H6.59a.963.963 0 0 0-.964.965v4.15c0 .535.43.966.964.966h1.733c.534 0 .965-.43.965-.965 0-.326.255-.581.58-.581.326 0 .582.255.582.58a2.128 2.128 0 0 1-2.127 2.128v.001Zm30.17 3.696h-1.732a2.128 2.128 0 0 1-2.127-2.127V37.494c0-1.174.953-2.127 2.127-2.127h1.733c1.174 0 2.127.953 2.127 2.127V49.04a2.128 2.128 0 0 1-2.127 2.126Zm-1.732-14.649a.962.962 0 0 0-.965.965v11.545c0 .534.43.965.965.965h1.733c.534 0 .965-.43.965-.965V37.482a.962.962 0 0 0-.965-.965h-1.733Z"/>
    <path fill="#FAFF00" d="M43.33 47.47h-1.732a2.128 2.128 0 0 1-2.127-2.128c0-.326.256-.581.581-.581.326 0 .581.255.581.58 0 .536.43.966.965.966h1.733c.534 0 .964-.43.964-.965v-4.15a.963.963 0 0 0-.964-.965h-1.733a.962.962 0 0 0-.965.965.576.576 0 0 1-.58.58.575.575 0 0 1-.582-.58c0-1.175.953-2.128 2.127-2.128h1.733c1.174 0 2.127.953 2.127 2.127v4.15a2.13 2.13 0 0 1-2.127 2.128l-.001.001Zm-5.673-13.987h-1.29a1.737 1.737 0 0 1-1.732-1.732V19.415c0-.953.779-1.733 1.732-1.733h1.29c.954 0 1.733.78 1.733 1.733V31.75c0 .953-.779 1.732-1.733 1.732v.001Zm-1.29-14.638a.57.57 0 0 0-.57.57v12.347c0 .314.256.57.57.57h1.29a.568.568 0 0 0 .57-.57V19.415a.57.57 0 0 0-.57-.57h-1.29Z"/>
    <path fill="#FAFF00" d="M41.25 31.216h-1.29a1.737 1.737 0 0 1-1.733-1.732c0-.326.255-.581.58-.581.326 0 .582.255.582.581 0 .314.256.57.57.57h1.29a.57.57 0 0 0 .57-.57v-7.801a.57.57 0 0 0-.57-.57h-1.29a.57.57 0 0 0-.57.57.576.576 0 0 1-.58.581.575.575 0 0 1-.582-.581c0-.953.778-1.733 1.732-1.733h1.29c.953 0 1.733.78 1.733 1.733v7.801c0 .954-.779 1.732-1.732 1.732Z"/>
    <path fill="#FAFF00" d="M44.84 29.647h-1.29a1.737 1.737 0 0 1-1.732-1.733c0-.325.256-.58.582-.58.325 0 .58.255.58.58 0 .314.257.57.57.57h1.29a.57.57 0 0 0 .57-.57v-4.662a.57.57 0 0 0-.57-.57h-1.29a.57.57 0 0 0-.57.57.577.577 0 0 1-.58.582.578.578 0 0 1-.582-.582c0-.953.78-1.732 1.733-1.732h1.29c.953 0 1.733.779 1.733 1.732v4.662c0 .954-.78 1.733-1.733 1.733Z"/>
    <path fill="#FAFF00" d="M49.33 28.193h-3.337a.576.576 0 0 1-.582-.581c0-.326.256-.581.58-.581h2.757v-2.907h-2.755a.576.576 0 0 1-.582-.581c0-.326.256-.582.58-.582h3.338c.326 0 .58.256.58.582v4.069a.575.575 0 0 1-.58.581Z"/>
</svg>