<svg xmlns="http://www.w3.org/2000/svg" width="49" height="48" fill="none">
    <path fill="#FAFF00" d="M48.011 23.724A23.562 23.562 0 1 1 24.45.16a.736.736 0 0 1 0 1.473A22.098 22.098 0 0 0 2.91 18.782a22.093 22.093 0 1 0 38.874-8.743l-.193 1.94a.736.736 0 0 1-.733.664c-.023 0-.049 0-.074-.004a.737.737 0 0 1-.659-.806l.368-3.682c.04-.404.401-.7.806-.66l3.678.368a.736.736 0 1 1-.147 1.465l-1.883-.188a23.476 23.476 0 0 1 5.063 14.588ZM24.45 6.062a17.659 17.659 0 0 1 12.488 30.149 17.662 17.662 0 0 1-24.976 0 17.662 17.662 0 0 1-5.173-12.488 17.681 17.681 0 0 1 17.66-17.66Zm9.04 7.581 1.866-1.87a16.126 16.126 0 0 0-10.172-4.221v2.65a.736.736 0 1 1-1.473 0v-2.65a16.127 16.127 0 0 0-10.173 4.221l1.87 1.87a.737.737 0 0 1-1.041 1.042l-1.87-1.87a16.126 16.126 0 0 0-4.222 10.172h2.651a.736.736 0 1 1 0 1.473h-2.65a16.125 16.125 0 0 0 4.221 10.172l1.87-1.865a.736.736 0 1 1 1.04 1.041l-1.869 1.866a16.122 16.122 0 0 0 10.172 4.221v-2.65a.737.737 0 1 1 1.473 0v2.65a16.127 16.127 0 0 0 10.172-4.221l-1.865-1.866a.737.737 0 0 1 1.042-1.041l1.865 1.865a16.124 16.124 0 0 0 4.222-10.173h-2.65a.736.736 0 1 1 0-1.472h2.65a16.119 16.119 0 0 0-4.222-10.172l-1.865 1.87a.736.736 0 0 1-1.041-1.042Zm-3.745 14.334a.737.737 0 1 1-1.042 1.041l-3.32-3.32a2.185 2.185 0 1 1-1.67-4.03v-7.193a.736.736 0 1 1 1.473 0v7.192a2.18 2.18 0 0 1 1.238 2.99l3.32 3.32Zm-5.295-3.542a.711.711 0 1 0 0-1.422.711.711 0 0 0 0 1.422Z"/>
</svg>