<svg width="68" height="64" viewBox="0 0 68 64" fill="none" xmlns="http://www.w3.org/2000/svg">
<path d="M44.2153 34.1932H23.6956C23.3701 34.1932 23.1143 33.9374 23.1143 33.6119C23.1143 33.2863 23.3701 33.0305 23.6956 33.0305H44.2041C44.5296 33.0305 44.7854 33.2863 44.7854 33.6119C44.7854 33.9374 44.5296 34.1932 44.2158 34.1932H44.2153ZM44.2153 30.1241H23.6956C23.3701 30.1241 23.1143 29.8683 23.1143 29.5428C23.1143 29.2172 23.3701 28.9614 23.6956 28.9614H44.2041C44.5296 28.9614 44.7854 29.2172 44.7854 29.5428C44.7854 29.8683 44.5296 30.1241 44.2158 30.1241H44.2153Z" fill="#FAFF00"/>
<path d="M22.5442 39.4829H21.2539C20.3006 39.4829 19.5215 38.7041 19.5215 37.7505V25.4148C19.5215 24.4616 20.3003 23.6824 21.2539 23.6824H22.5442C23.4974 23.6824 24.2766 24.4612 24.2766 25.4148V37.7505C24.2766 38.7041 23.5091 39.4829 22.5442 39.4829ZM21.2539 24.8452C20.94 24.8452 20.6842 25.101 20.6842 25.4149V37.7618C20.6842 38.0757 20.94 38.3315 21.2539 38.3315H22.5442C22.8581 38.3315 23.1139 38.0757 23.1139 37.7618V25.4149C23.1139 25.101 22.8581 24.8452 22.5442 24.8452H21.2539Z" fill="#FAFF00"/>
<path d="M18.9515 37.2163H17.6611C16.7079 37.2163 15.9287 36.4376 15.9287 35.484V27.6827C15.9287 26.7295 16.7075 25.9503 17.6611 25.9503H18.9515C19.9047 25.9503 20.6838 26.7291 20.6838 27.6827C20.6838 28.0082 20.428 28.264 20.1025 28.264C19.7769 28.264 19.5211 28.0082 19.5211 27.6827C19.5211 27.3688 19.2653 27.113 18.9514 27.113L17.6611 27.1134C17.3472 27.1134 17.0914 27.3692 17.0914 27.683V35.4843C17.0914 35.7982 17.3472 36.054 17.6611 36.054H18.9514C19.2653 36.054 19.5211 35.7982 19.5211 35.4843C19.5211 35.1588 19.7769 34.903 20.1025 34.903C20.428 34.903 20.6838 35.1588 20.6838 35.4843C20.6838 36.4376 19.905 37.2163 18.9515 37.2163Z" fill="#FAFF00"/>
<path d="M15.3597 35.6468H14.0693C13.1161 35.6468 12.3369 34.868 12.3369 33.9144V29.2524C12.3369 28.2992 13.1157 27.52 14.0693 27.52H15.3597C16.3129 27.52 17.092 28.2988 17.092 29.2524C17.092 29.5779 16.8362 29.8337 16.5107 29.8337C16.1851 29.8337 15.9293 29.5779 15.9293 29.2524C15.9293 28.9385 15.6735 28.6827 15.3596 28.6827H14.0693C13.7554 28.6827 13.4996 28.9385 13.4996 29.2524V33.9144C13.4996 34.2283 13.7554 34.4841 14.0693 34.4841H15.3596C15.6735 34.4841 15.9293 34.2283 15.9293 33.9144C15.9293 33.5889 16.1851 33.3331 16.5107 33.3331C16.8362 33.3331 17.092 33.5889 17.092 33.9144C17.092 34.868 16.3129 35.6468 15.3597 35.6468Z" fill="#FAFF00"/>
<path d="M12.918 34.1932H9.58135C9.25582 34.1932 9 33.9374 9 33.6119V29.5428C9 29.2172 9.25582 28.9614 9.58135 28.9614H12.918C13.2435 28.9614 13.4993 29.2172 13.4993 29.5428C13.4993 29.8683 13.2435 30.1241 12.918 30.1241H10.1627V33.0305H12.918C13.2435 33.0305 13.4993 33.2863 13.4993 33.6118C13.4993 33.9373 13.2435 34.1932 12.918 34.1932Z" fill="#FAFF00"/>
<path d="M44.2153 16.521H23.6956C23.3701 16.521 23.1143 16.2652 23.1143 15.9397C23.1143 15.6142 23.3701 15.3583 23.6956 15.3583H44.2041C44.5296 15.3583 44.7854 15.6142 44.7854 15.9397C44.7854 16.2652 44.5296 16.521 44.2158 16.521H44.2153ZM44.2153 12.4519H23.6956C23.3701 12.4519 23.1143 12.1961 23.1143 11.8706C23.1143 11.5451 23.3701 11.2892 23.6956 11.2892H44.2041C44.5296 11.2892 44.7854 11.5451 44.7854 11.8706C44.7854 12.1961 44.5296 12.4519 44.2158 12.4519H44.2153Z" fill="#FAFF00"/>
<path d="M22.149 21.8117H20.4166C19.2423 21.8117 18.2891 20.8585 18.2891 19.6841V8.12755C18.2891 6.95321 19.2423 6 20.4166 6H22.149C23.3233 6 24.2765 6.95321 24.2765 8.12755V19.672C24.2765 20.8576 23.3233 21.8109 22.149 21.8109V21.8117ZM20.4166 7.16276C19.882 7.16276 19.4517 7.59302 19.4517 8.12764V19.6721C19.4517 20.2067 19.882 20.637 20.4166 20.637H22.149C22.6836 20.637 23.1139 20.2067 23.1139 19.6721V8.12764C23.1139 7.593 22.6836 7.16276 22.149 7.16276H20.4166Z" fill="#FAFF00"/>
<path d="M17.3238 18.1149H15.5914C14.4171 18.1149 13.4639 17.1617 13.4639 15.9874V11.8252C13.4639 10.6509 14.4171 9.69769 15.5914 9.69769H17.3238C18.4981 9.69769 19.4513 10.6509 19.4513 11.8252C19.4513 12.1508 19.1955 12.4066 18.87 12.4066C18.5445 12.4066 18.2886 12.1508 18.2886 11.8252C18.2886 11.2906 17.8584 10.8604 17.3237 10.8604L15.5914 10.86C15.0567 10.86 14.6265 11.2903 14.6265 11.8249V15.9753C14.6265 16.51 15.0568 16.9402 15.5914 16.9402H17.3237C17.8584 16.9402 18.2886 16.51 18.2886 15.9753C18.2886 15.6498 18.5445 15.394 18.87 15.394C19.1955 15.394 19.4513 15.6498 19.4513 15.9753C19.4513 17.1614 18.4981 18.1149 17.3238 18.1149Z" fill="#FAFF00"/>
<path d="M47.4947 21.8117H45.7623C44.588 21.8117 43.6348 20.8585 43.6348 19.6841V8.12755C43.6348 6.95321 44.588 6 45.7623 6H47.4947C48.669 6 49.6222 6.95321 49.6222 8.12755V19.672C49.6222 20.8576 48.669 21.8109 47.4947 21.8109V21.8117ZM45.7623 7.16276C45.2277 7.16276 44.7974 7.59302 44.7974 8.12764V19.6721C44.7974 20.2067 45.2277 20.637 45.7623 20.637H47.4947C48.0293 20.637 48.4596 20.2067 48.4596 19.6721V8.12764C48.4596 7.593 48.0293 7.16276 47.4947 7.16276H45.7623Z" fill="#FAFF00"/>
<path d="M52.3306 18.1149H50.5983C49.4239 18.1149 48.4707 17.1617 48.4707 15.9874C48.4707 15.6619 48.7265 15.406 49.0521 15.406C49.3776 15.406 49.6334 15.6619 49.6334 15.9874C49.6334 16.522 50.0637 16.9523 50.5983 16.9523H52.3307C52.8653 16.9523 53.2955 16.522 53.2955 15.9874V11.8252C53.2955 11.2906 52.8653 10.8604 52.3307 10.8604H50.5983C50.0637 10.8604 49.6334 11.2906 49.6334 11.8252C49.6334 12.1508 49.3776 12.4066 49.0521 12.4066C48.7265 12.4066 48.4707 12.1508 48.4707 11.8252C48.4707 10.6509 49.4239 9.69769 50.5983 9.69769H52.3306C53.505 9.69769 54.4582 10.6509 54.4582 11.8252V15.9757C54.4582 17.1614 53.5046 18.1149 52.3306 18.1149Z" fill="#FAFF00"/>
<path d="M44.2153 51.8765H23.6956C23.3701 51.8765 23.1143 51.6207 23.1143 51.2952C23.1143 50.9696 23.3701 50.7138 23.6956 50.7138H44.2041C44.5296 50.7138 44.7854 50.9696 44.7854 51.2952C44.7854 51.6207 44.5296 51.8765 44.2158 51.8765H44.2153ZM44.2153 47.8071H23.6956C23.3701 47.8071 23.1143 47.5512 23.1143 47.2257C23.1143 46.9002 23.3701 46.6443 23.6956 46.6443H44.2041C44.5296 46.6443 44.7854 46.9002 44.7854 47.2257C44.7854 47.5516 44.5296 47.8071 44.2158 47.8071H44.2153Z" fill="#FAFF00"/>
<path d="M22.149 57.1662H20.4166C19.2423 57.1662 18.2891 56.213 18.2891 55.0387V43.4943C18.2891 42.3199 19.2423 41.3667 20.4166 41.3667H22.149C23.3233 41.3667 24.2765 42.3199 24.2765 43.4943V55.0387C24.2765 56.213 23.3233 57.1662 22.149 57.1662ZM20.4166 42.5173C19.882 42.5173 19.4517 42.9476 19.4517 43.4822V55.0266C19.4517 55.5613 19.882 55.9915 20.4166 55.9915H22.149C22.6836 55.9915 23.1139 55.5613 23.1139 55.0266V43.4822C23.1139 42.9476 22.6836 42.5173 22.149 42.5173H20.4166Z" fill="#FAFF00"/>
<path d="M17.3238 53.4694H15.5914C14.4171 53.4694 13.4639 52.5162 13.4639 51.3419V47.1914C13.4639 46.0171 14.4171 45.0638 15.5914 45.0638H17.3238C18.4981 45.0638 19.4513 46.0171 19.4513 47.1914C19.4513 47.5169 19.1955 47.7727 18.87 47.7727C18.5445 47.7727 18.2886 47.5169 18.2886 47.1914C18.2886 46.6568 17.8584 46.2265 17.3237 46.2265H15.5914C15.0567 46.2265 14.6265 46.6568 14.6265 47.1914V51.3419C14.6265 51.8765 15.0568 52.3067 15.5914 52.3067H17.3237C17.8584 52.3067 18.2886 51.8765 18.2886 51.3419C18.2886 51.0163 18.5445 50.7605 18.87 50.7605C19.1955 50.7605 19.4513 51.0163 19.4513 51.3419C19.4513 52.5162 18.4981 53.4694 17.3238 53.4694Z" fill="#FAFF00"/>
<path d="M47.4947 57.1662H45.7623C44.588 57.1662 43.6348 56.213 43.6348 55.0387V43.4943C43.6348 42.3199 44.588 41.3667 45.7623 41.3667H47.4947C48.669 41.3667 49.6222 42.3199 49.6222 43.4943V55.0387C49.6222 56.213 48.669 57.1662 47.4947 57.1662ZM45.7623 42.5173C45.2277 42.5173 44.7974 42.9476 44.7974 43.4822V55.0266C44.7974 55.5613 45.2277 55.9915 45.7623 55.9915H47.4947C48.0293 55.9915 48.4596 55.5613 48.4596 55.0266V43.4822C48.4596 42.9476 48.0293 42.5173 47.4947 42.5173H45.7623Z" fill="#FAFF00"/>
<path d="M52.3306 53.4695H50.5983C49.4239 53.4695 48.4707 52.5163 48.4707 51.3419C48.4707 51.0164 48.7265 50.7606 49.0521 50.7606C49.3776 50.7606 49.6334 51.0164 49.6334 51.3419C49.6334 51.8766 50.0637 52.3068 50.5983 52.3068H52.3307C52.8653 52.3068 53.2955 51.8765 53.2955 51.3419V47.1915C53.2955 46.6568 52.8653 46.2266 52.3307 46.2266H50.5983C50.0637 46.2266 49.6334 46.6568 49.6334 47.1915C49.6334 47.517 49.3776 47.7728 49.0521 47.7728C48.7265 47.7728 48.4707 47.517 48.4707 47.1915C48.4707 46.0171 49.4239 45.0639 50.5983 45.0639H52.3306C53.505 45.0639 54.4582 46.0171 54.4582 47.1915V51.3419C54.4582 52.5163 53.5046 53.4695 52.3306 53.4695Z" fill="#FAFF00"/>
<path d="M46.6575 39.4829H45.3671C44.4139 39.4829 43.6348 38.7041 43.6348 37.7505V25.4148C43.6348 24.4616 44.4135 23.6824 45.3671 23.6824H46.6575C47.6107 23.6824 48.3899 24.4612 48.3899 25.4148V37.7505C48.3899 38.7041 47.6111 39.4829 46.6575 39.4829ZM45.3671 24.8452C45.0533 24.8452 44.7975 25.101 44.7975 25.4149V37.7618C44.7975 38.0757 45.0533 38.3315 45.3671 38.3315H46.6575C46.9714 38.3315 47.2272 38.0757 47.2272 37.7618V25.4149C47.2272 25.101 46.9714 24.8452 46.6575 24.8452H45.3671Z" fill="#FAFF00"/>
<path d="M50.2493 37.2163H48.9589C48.0057 37.2163 47.2266 36.4376 47.2266 35.484C47.2266 35.1585 47.4824 34.9026 47.8079 34.9026C48.1334 34.9026 48.3893 35.1585 48.3893 35.484C48.3893 35.7978 48.6451 36.0537 48.9589 36.0537H50.2493C50.5632 36.0537 50.819 35.7978 50.819 35.484V27.6827C50.819 27.3688 50.5632 27.113 50.2493 27.113H48.9589C48.6451 27.113 48.3893 27.3688 48.3893 27.6827C48.3893 28.0082 48.1334 28.264 47.8079 28.264C47.4824 28.264 47.2266 28.0082 47.2266 27.6827C47.2266 26.7295 48.0053 25.9503 48.9589 25.9503H50.2493C51.2025 25.9503 51.9817 26.7291 51.9817 27.6827V35.484C51.9817 36.4376 51.2029 37.2163 50.2493 37.2163Z" fill="#FAFF00"/>
<path d="M53.8411 35.6468H52.5507C51.5975 35.6468 50.8184 34.868 50.8184 33.9144C50.8184 33.5889 51.0742 33.3331 51.3997 33.3331C51.7252 33.3331 51.9811 33.5889 51.9811 33.9144C51.9811 34.2283 52.2369 34.4841 52.5507 34.4841H53.8411C54.155 34.4841 54.4108 34.2283 54.4108 33.9144V29.2524C54.4108 28.9385 54.155 28.6827 53.8411 28.6827H52.5507C52.2369 28.6827 51.9811 28.9385 51.9811 29.2524C51.9811 29.5779 51.7252 29.8337 51.3997 29.8337C51.0742 29.8337 50.8184 29.5779 50.8184 29.2524C50.8184 28.2992 51.5971 27.52 52.5507 27.52H53.8411C54.7943 27.52 55.5735 28.2988 55.5735 29.2524V33.9144C55.5735 34.868 54.7947 35.6468 53.8411 35.6468Z" fill="#FAFF00"/>
<path d="M58.3291 34.1932H54.9925C54.667 34.1932 54.4111 33.9373 54.4111 33.6118C54.4111 33.2863 54.667 33.0305 54.9925 33.0305H57.7478V30.1241H54.9925C54.667 30.1241 54.4111 29.8683 54.4111 29.5428C54.4111 29.2172 54.667 28.9614 54.9925 28.9614H58.3291C58.6547 28.9614 58.9105 29.2172 58.9105 29.5428V33.6119C58.9105 33.9374 58.6547 34.1932 58.3291 34.1932Z" fill="#FAFF00"/>
</svg>
