<svg xmlns="http://www.w3.org/2000/svg" width="44" height="44" fill="none">
    <path fill="#FAFF00" d="M6.02 43.57H6.01a4.36 4.36 0 0 1-4.356-4.356V25.309c0-.502.407-.908.908-.908h6.904c.501 0 .908.406.908.908v13.906a4.36 4.36 0 0 1-4.356 4.355ZM3.47 26.216v12.998c0 1.4 1.14 2.54 2.541 2.54h.008c1.4 0 2.54-1.14 2.54-2.54V26.217l-5.088-.001Z"/>
    <path fill="#FAFF00" d="M8.103 26.216H3.925a.908.908 0 0 1-.907-.908v-2.814c0-1.001.814-1.815 1.815-1.815h2.362c1.001 0 1.816.814 1.816 1.815v2.814a.908.908 0 0 1-.908.908Zm-3.27-1.815h2.362v-1.907H4.833v1.907ZM39.368 26.216H35.19a.908.908 0 0 1-.908-.908v-2.814c0-1.001.814-1.815 1.816-1.815h2.362c1.001 0 1.815.814 1.815 1.815v2.814a.908.908 0 0 1-.907.908Zm-3.27-1.815h2.362v-1.907h-2.362v1.907Z"/>
    <path fill="#FAFF00" d="M37.284 43.57h-.008a4.36 4.36 0 0 1-4.356-4.356V25.309c0-.502.406-.908.908-.908h6.903c.502 0 .908.406.908.908v13.906a4.36 4.36 0 0 1-4.355 4.355Zm-2.549-17.354v12.998c0 1.4 1.14 2.54 2.54 2.54h.01c1.4 0 2.54-1.14 2.54-2.54l-.001-12.997-5.089-.001ZM11.121 26.216H.909a.908.908 0 1 1 0-1.816H11.12a.908.908 0 1 1 0 1.816Z"/>
    <path fill="#FAFF00" d="M42.386 26.216H32.173a.908.908 0 1 1 0-1.816h10.213a.908.908 0 1 1 0 1.816Z"/>
    <path fill="#FAFF00" d="M21.901 31.601a4.848 4.848 0 0 1-4.842-4.842V6.883a5.074 5.074 0 0 0-5.068-5.068 5.073 5.073 0 0 0-5.068 5.068v14.703a.908.908 0 1 1-1.816 0V6.883A6.891 6.891 0 0 1 11.991 0a6.891 6.891 0 0 1 6.883 6.883V26.76a3.03 3.03 0 0 0 3.027 3.027 3.03 3.03 0 0 0 3.028-3.027v-11.89a6.637 6.637 0 0 1 6.63-6.63 6.637 6.637 0 0 1 6.629 6.63v6.717a.908.908 0 1 1-1.816 0v-6.718a4.82 4.82 0 0 0-4.814-4.814 4.82 4.82 0 0 0-4.814 4.814v11.89a4.848 4.848 0 0 1-4.843 4.843ZM9.466 34.893H2.562a.908.908 0 1 1 0-1.815h6.904a.908.908 0 1 1 0 1.815ZM9.466 30.908H2.562a.908.908 0 1 1 0-1.815h6.904a.908.908 0 1 1 0 1.815ZM9.466 38.877H2.562a.908.908 0 1 1 0-1.815h6.904a.908.908 0 1 1 0 1.815ZM40.731 34.893h-6.903a.908.908 0 1 1 0-1.815h6.903a.908.908 0 1 1 0 1.815ZM40.731 30.908h-6.903a.908.908 0 1 1 0-1.815h6.903a.908.908 0 1 1 0 1.815ZM40.731 38.877h-6.903a.908.908 0 1 1 0-1.815h6.903a.908.908 0 1 1 0 1.815Z"/>
</svg>