<svg width="59" height="59" viewBox="0 0 59 59" fill="none" xmlns="http://www.w3.org/2000/svg">
<path d="M14.0191 46.5696H14.0112C11.6094 46.5696 9.65527 44.6158 9.65527 42.214V28.3086C9.65527 27.8071 10.0616 27.4008 10.563 27.4008H17.4669C17.9683 27.4008 18.3746 27.8071 18.3746 28.3086V42.2149C18.3746 44.6163 16.4209 46.5701 14.0191 46.5701L14.0191 46.5696ZM11.4708 29.216V42.2145C11.4708 43.6148 12.6103 44.7543 14.0112 44.7543H14.0191C15.4197 44.7543 16.5592 43.6148 16.5592 42.2142V29.2165L11.4708 29.216Z" fill="#FAFF00"/>
<path d="M16.103 29.216H11.9253C11.4239 29.216 11.0176 28.8097 11.0176 28.3082V25.4942C11.0176 24.493 11.8318 23.6788 12.833 23.6788H15.1953C16.1965 23.6788 17.0107 24.493 17.0107 25.4942V28.3082C17.0107 28.8094 16.6045 29.216 16.103 29.216ZM12.833 27.4006H15.1953V25.4943H12.833V27.4006Z" fill="#FAFF00"/>
<path d="M47.3677 29.216H43.19C42.6886 29.216 42.2822 28.8097 42.2822 28.3082V25.4942C42.2822 24.493 43.0964 23.6788 44.0977 23.6788H46.4599C47.4612 23.6788 48.2754 24.493 48.2754 25.4942V28.3082C48.2754 28.8094 47.8688 29.216 47.3677 29.216ZM44.0977 27.4006H46.4599V25.4943H44.0977V27.4006Z" fill="#FAFF00"/>
<path d="M45.284 46.5696H45.2755C42.8737 46.5696 40.9199 44.6158 40.9199 42.214V28.3086C40.9199 27.8071 41.3262 27.4008 41.8277 27.4008H48.7315C49.233 27.4008 49.6393 27.8071 49.6393 28.3086V42.2149C49.6393 44.6163 47.6855 46.5701 45.2841 46.5701L45.284 46.5696ZM42.7354 29.216V42.2145C42.7354 43.6148 43.8749 44.7543 45.2755 44.7543H45.2841C46.6847 44.7543 47.8242 43.6148 47.8242 42.2142L47.8239 29.2165L42.7354 29.216Z" fill="#FAFF00"/>
<path d="M19.1215 29.216H8.90776C8.40632 29.216 8 28.8097 8 28.3082C8 27.8067 8.40628 27.4005 8.90776 27.4005H19.1215C19.6229 27.4005 20.0293 27.8067 20.0293 28.3082C20.0293 28.8093 19.623 29.216 19.1215 29.216Z" fill="#FAFF00"/>
<path d="M50.3863 29.216H40.1734C39.672 29.216 39.2656 28.8097 39.2656 28.3082C39.2656 27.8067 39.6719 27.4005 40.1734 27.4005H50.3863C50.8877 27.4005 51.294 27.8067 51.294 28.3082C51.294 28.8093 50.8878 29.216 50.3866 29.216H50.3863Z" fill="#FAFF00"/>
<path d="M29.9011 34.601C27.2306 34.601 25.0586 32.4289 25.0586 29.7585V9.88311C25.0586 7.08853 22.7849 4.81543 19.9906 4.81543C17.196 4.81543 14.9229 7.08853 14.9229 9.88311V24.5859C14.9229 25.0873 14.5167 25.4937 14.0152 25.4937C13.5137 25.4937 13.1074 25.0874 13.1074 24.5859V9.88311C13.1074 6.08798 16.1954 3 19.9905 3C23.786 3 26.874 6.08798 26.874 9.88311V29.7585C26.874 31.4278 28.2321 32.7856 29.901 32.7856C31.5706 32.7856 32.9287 31.4275 32.9287 29.7585V17.8683C32.9287 14.2128 35.9027 11.2388 39.5583 11.2388C43.2139 11.2388 46.1879 14.2128 46.1879 17.8683L46.1875 24.5862C46.1875 25.0876 45.7813 25.4939 45.2798 25.4939C44.7783 25.4939 44.372 25.0876 44.372 24.5862V17.8683C44.372 15.214 42.2122 13.0542 39.5579 13.0542C36.9036 13.0542 34.7437 15.214 34.7437 17.8683V29.7585C34.7437 32.429 32.5714 34.6013 29.9009 34.6013L29.9011 34.601Z" fill="#FAFF00"/>
<path d="M17.4659 37.8932H10.5621C10.0606 37.8932 9.6543 37.4869 9.6543 36.9855C9.6543 36.484 10.0606 36.0777 10.5621 36.0777H17.4659C17.9673 36.0777 18.3737 36.484 18.3737 36.9855C18.3737 37.4866 17.967 37.8932 17.4659 37.8932Z" fill="#FAFF00"/>
<path d="M17.4659 33.9082H10.5621C10.0606 33.9082 9.6543 33.5019 9.6543 33.0004C9.6543 32.4989 10.0606 32.0927 10.5621 32.0927H17.4659C17.9673 32.0927 18.3737 32.4989 18.3737 33.0004C18.3737 33.5019 17.967 33.9082 17.4659 33.9082Z" fill="#FAFF00"/>
<path d="M17.4659 41.8774H10.5621C10.0606 41.8774 9.6543 41.4711 9.6543 40.9696C9.6543 40.4682 10.0606 40.0619 10.5621 40.0619H17.4659C17.9673 40.0619 18.3737 40.4682 18.3737 40.9696C18.3737 41.4711 17.967 41.8774 17.4659 41.8774Z" fill="#FAFF00"/>
<path d="M48.7315 37.8932H41.8277C41.3262 37.8932 40.9199 37.4869 40.9199 36.9855C40.9199 36.484 41.3262 36.0777 41.8277 36.0777H48.7315C49.233 36.0777 49.6393 36.484 49.6393 36.9855C49.6393 37.4866 49.233 37.8932 48.7315 37.8932Z" fill="#FAFF00"/>
<path d="M48.7315 33.9082H41.8277C41.3262 33.9082 40.9199 33.5019 40.9199 33.0004C40.9199 32.4989 41.3262 32.0927 41.8277 32.0927H48.7315C49.233 32.0927 49.6393 32.4989 49.6393 33.0004C49.6393 33.5019 49.233 33.9082 48.7315 33.9082Z" fill="#FAFF00"/>
<path d="M48.7315 41.8774H41.8277C41.3262 41.8774 40.9199 41.4711 40.9199 40.9696C40.9199 40.4682 41.3262 40.0619 41.8277 40.0619H48.7315C49.233 40.0619 49.6393 40.4682 49.6393 40.9696C49.6393 41.4711 49.233 41.8774 48.7315 41.8774Z" fill="#FAFF00"/>
</svg>
