<svg width="67" height="67" viewBox="0 0 67 67" fill="none" xmlns="http://www.w3.org/2000/svg">
<path d="M59.0112 23.7237C59.0112 29.9727 56.5288 35.966 52.1099 40.3848C47.6911 44.8036 41.698 47.2858 35.4488 47.2858C29.1997 47.2858 23.2066 44.8037 18.7877 40.3848C14.3689 35.966 11.8867 29.9728 11.8867 23.7237C11.8867 17.4746 14.3688 11.4814 18.7877 7.0626C23.2066 2.64378 29.1997 0.161316 35.4488 0.161316C35.8556 0.161316 36.185 0.491058 36.185 0.897842C36.185 1.30428 35.8556 1.63403 35.4488 1.63403C30.4479 1.633 25.5952 3.32862 21.6822 6.44319C17.7701 9.5581 15.0301 13.9081 13.9108 18.7819C12.7912 23.6558 13.3582 28.7652 15.5192 33.2752C17.6798 37.7851 21.3066 41.4284 25.8067 43.61C30.3067 45.7912 35.4139 46.3815 40.2921 45.2841C45.1711 44.1866 49.5338 41.4665 52.6659 37.5685C55.7986 33.6704 57.5161 28.825 57.5377 23.8247C57.5593 18.8237 55.8839 13.9632 52.7853 10.0387L52.5915 11.9792C52.5539 12.3555 52.2375 12.6421 51.8595 12.6425C51.8355 12.6425 51.8105 12.6425 51.7855 12.6387C51.3808 12.5979 51.0856 12.237 51.126 11.8327L51.4941 8.15103H51.4944C51.5348 7.74664 51.8954 7.45148 52.2998 7.49155L55.9783 7.8593C56.3831 7.90005 56.6782 8.26095 56.6375 8.66568C56.5967 9.07007 56.2358 9.36523 55.8311 9.32448L53.9485 9.1365H53.9488C57.2326 13.2893 59.0165 18.43 59.0107 23.7245L59.0112 23.7237ZM35.4488 6.06243C40.1327 6.06243 44.6248 7.92314 47.9365 11.2353C51.2483 14.5474 53.1094 19.0395 53.1094 23.723C53.1094 28.4065 51.2487 32.899 47.9365 36.2107C44.6244 39.5224 40.1323 41.3836 35.4488 41.3836C30.7654 41.3836 26.2728 39.5229 22.9611 36.2107C19.6494 32.8986 17.7883 28.4065 17.7883 23.723C17.7934 19.0405 19.6562 14.5514 22.9669 11.2405C26.2777 7.92971 30.7667 6.06699 35.4494 6.0619L35.4488 6.06243ZM44.4898 13.6434L46.3553 11.7732C43.565 9.21565 39.9638 7.72135 36.1826 7.55156V10.2025C36.1826 10.6093 35.8529 10.9387 35.4464 10.9387C35.0396 10.9387 34.7099 10.6093 34.7099 10.2025V7.55156C30.929 7.7214 27.3278 9.21565 24.5372 11.7732L26.4075 13.6431C26.6951 13.9307 26.6951 14.3971 26.4075 14.6847C26.1199 14.9723 25.6535 14.9723 25.3659 14.6847L23.496 12.8144C20.9385 15.6048 19.4441 19.2059 19.2744 22.9871H21.9253C22.3317 22.9871 22.6615 23.3165 22.6615 23.7233C22.6615 24.1301 22.3317 24.4595 21.9253 24.4595H19.2744C19.4442 28.2408 20.9385 31.8419 23.496 34.6321L25.3659 32.7667C25.5032 32.6249 25.6915 32.5438 25.8891 32.5424C26.0866 32.5407 26.2767 32.6184 26.416 32.7581C26.5558 32.8979 26.6331 33.0879 26.6314 33.2855C26.6297 33.4827 26.5486 33.6714 26.4065 33.8083L24.5372 35.6738C27.3272 38.2313 30.928 39.7259 34.709 39.8954V37.2448C34.709 36.838 35.0388 36.5082 35.4452 36.5082C35.852 36.5082 36.1818 36.838 36.1818 37.2448V39.8954C39.963 39.7255 43.5638 38.2313 46.3544 35.6738L44.489 33.8083H44.4893C44.2017 33.5207 44.2017 33.0543 44.4893 32.7667C44.7769 32.479 45.2433 32.4791 45.531 32.7667L47.3964 34.6321H47.3961C49.9536 31.8418 51.4482 28.2407 51.6177 24.4594H48.9671C48.5603 24.4594 48.2309 24.13 48.2309 23.7233C48.2309 23.3165 48.5603 22.9871 48.9671 22.9871H51.6177C51.4482 19.2058 49.9539 15.605 47.3961 12.8153L45.5306 14.6845H45.531C45.242 14.9636 44.7828 14.9598 44.4986 14.6759C44.2144 14.3921 44.2103 13.9329 44.4894 13.6436L44.4898 13.6434ZM40.7439 27.9772V27.9775C41.0315 28.2652 41.0315 28.7312 40.7439 29.0188C40.4559 29.3064 39.9899 29.3061 39.7023 29.0185L36.3815 25.6977C35.8408 25.9535 35.2194 25.9765 34.6612 25.7614C34.1034 25.5464 33.658 25.1119 33.4292 24.5592C33.2005 24.0069 33.2083 23.3848 33.4508 22.8379C33.6932 22.2914 34.1493 21.8682 34.7126 21.6672V14.4748C34.7126 14.068 35.042 13.7383 35.4488 13.7383C35.8556 13.7383 36.185 14.068 36.185 14.4748V21.6672C36.7657 21.8744 37.2314 22.3178 37.467 22.8872C37.7029 23.4567 37.6871 24.0994 37.4231 24.6565L40.7439 27.9772ZM35.4488 24.4353C35.7368 24.4353 35.9964 24.2617 36.1063 23.9956C36.2165 23.7299 36.1556 23.4238 35.9522 23.2201C35.7484 23.0167 35.4423 22.9557 35.1766 23.066C34.9106 23.1759 34.737 23.4354 34.737 23.7234C34.7376 24.1162 35.0561 24.4346 35.4488 24.4353Z" fill="#FAFF00"/>
</svg>
