<svg xmlns="http://www.w3.org/2000/svg" width="18" height="18" fill="none">
    <path fill="#fff" d="M7.833 10.5 6.021 8.687a.745.745 0 0 0-.573-.219.809.809 0 0 0-.573.24.79.79 0 0 0-.23.584c0 .236.077.43.23.583L7.25 12.25a.79.79 0 0 0 .583.23.79.79 0 0 0 .584-.23l4.729-4.73a.745.745 0 0 0 .22-.573.809.809 0 0 0-.24-.572.79.79 0 0 0-.584-.23.79.79 0 0 0-.584.23L7.833 10.5ZM9 17.333a8.11 8.11 0 0 1-3.25-.656 8.43 8.43 0 0 1-2.646-1.781 8.41 8.41 0 0 1-1.78-2.646A8.13 8.13 0 0 1 .666 9a8.11 8.11 0 0 1 .656-3.25 8.428 8.428 0 0 1 1.781-2.646 8.41 8.41 0 0 1 2.646-1.78A8.13 8.13 0 0 1 9 .666a8.11 8.11 0 0 1 3.25.656 8.428 8.428 0 0 1 2.646 1.781 8.422 8.422 0 0 1 1.782 2.646A8.099 8.099 0 0 1 17.333 9a8.11 8.11 0 0 1-.656 3.25 8.427 8.427 0 0 1-1.781 2.646 8.421 8.421 0 0 1-2.646 1.781 8.102 8.102 0 0 1-3.25.656Zm0-1.666c1.847 0 3.42-.65 4.72-1.948 1.298-1.298 1.947-2.871 1.947-4.719 0-1.847-.65-3.42-1.948-4.72C12.421 2.983 10.848 2.334 9 2.334c-1.847 0-3.42.65-4.72 1.948C2.983 5.579 2.334 7.152 2.334 9c0 1.847.65 3.42 1.948 4.72 1.298 1.298 2.871 1.947 4.72 1.947Z"/>
</svg>