<svg width="18" height="16" viewBox="0 0 18 16" fill="none" xmlns="http://www.w3.org/2000/svg">
    <path d="M17.3272 2.38576C17.2799 2.27155 17.1999 2.17393 17.0971 2.10523C16.9943 2.03653 16.8735 1.99985 16.7499 1.99983H14.3725C14.0401 1.43434 13.5671 0.964481 12.9994 0.635925C12.4317 0.307368 11.7886 0.131296 11.1327 0.124827C10.644 0.118417 10.159 0.209806 9.70621 0.393617C9.25339 0.577427 8.84191 0.849946 8.49597 1.19514C8.13993 1.54453 7.85734 1.96158 7.66482 2.42177C7.47229 2.88196 7.37371 3.37599 7.37488 3.87483V4.35061C4.22956 3.52092 1.65691 0.962327 1.62956 0.934983C1.54571 0.85039 1.43944 0.791519 1.32325 0.765301C1.20706 0.739084 1.0858 0.746612 0.973751 0.787C0.861699 0.827388 0.76352 0.898954 0.690778 0.993269C0.618035 1.08758 0.573757 1.20072 0.563159 1.31936C0.22644 5.05295 1.31082 7.55139 2.28191 8.98967C2.75541 9.70068 3.33143 10.3378 3.99128 10.8803C2.80144 12.2498 0.928003 12.9694 0.90769 12.9772C0.819498 13.0102 0.73991 13.0627 0.674874 13.1308C0.609838 13.199 0.561036 13.2809 0.532113 13.3705C0.503189 13.4601 0.494894 13.5551 0.507846 13.6484C0.520798 13.7417 0.554662 13.8308 0.606909 13.9092C0.665502 13.9967 0.899878 14.3037 1.47253 14.5905C2.18035 14.9451 3.1155 15.1248 4.24988 15.1248C9.77097 15.1248 14.3843 10.8733 14.8553 5.40295L17.1921 3.06701C17.2794 2.97956 17.3389 2.86815 17.363 2.74689C17.387 2.62563 17.3746 2.49995 17.3272 2.38576ZM13.8116 4.68342C13.7044 4.79084 13.64 4.93357 13.6303 5.08498C13.3124 10.0139 9.19363 13.8748 4.24988 13.8748C3.42488 13.8748 2.84363 13.7655 2.43581 13.6342C3.33503 13.1459 4.58894 12.3061 5.39519 11.0967C5.44251 11.0256 5.47475 10.9455 5.48992 10.8615C5.5051 10.7774 5.50288 10.6911 5.4834 10.608C5.46393 10.5248 5.42761 10.4465 5.3767 10.3779C5.32578 10.3093 5.26135 10.2519 5.18738 10.2092C5.15066 10.1881 1.75691 8.15139 1.74988 2.7092C2.99988 3.72483 5.28503 5.30061 7.89597 5.73967C7.98545 5.75476 8.07715 5.75018 8.16468 5.72625C8.25222 5.70232 8.33349 5.65962 8.40286 5.60111C8.47222 5.5426 8.52801 5.46968 8.56636 5.38743C8.6047 5.30518 8.62467 5.21557 8.62488 5.12483V3.87483C8.62418 3.54143 8.69017 3.21126 8.81897 2.90374C8.94777 2.59623 9.13678 2.31758 9.37488 2.0842C9.60312 1.85553 9.8749 1.67493 10.1741 1.55309C10.4734 1.43125 10.794 1.37063 11.1171 1.37483C12.1061 1.38733 13.0303 1.99045 13.4171 2.87561C13.4658 2.98689 13.5459 3.08156 13.6476 3.14802C13.7494 3.21448 13.8682 3.24986 13.9897 3.24983H15.2397L13.8116 4.68342Z" fill="white"/>
</svg>
